<svg width="720" height="721" viewBox="0 0 720 721" fill="none" xmlns="http://www.w3.org/2000/svg">
<rect width="720" height="720" transform="translate(0 0.890015)" fill="#E5F0F3"/>
<rect x="28.1399" y="29.03" width="146.66" height="146.66" rx="73.33" fill="#5370D7"/>
<rect x="199.59" y="29.03" width="146.66" height="146.66" rx="73.33" fill="#5370D7"/>
<rect x="374.4" y="29.6901" width="144" height="144" rx="72" fill="#5370D7"/>
<rect x="547.2" y="29.6901" width="144" height="144" rx="72" fill="#5370D7"/>
<rect x="28.1399" y="200.48" width="146.66" height="146.66" rx="73.33" fill="#5370D7"/>
<rect x="199.59" y="200.48" width="146.66" height="146.66" rx="73.33" fill="#5370D7"/>
<rect x="374.4" y="202.49" width="144" height="144" rx="72" fill="#5370D7"/>
<rect x="547.2" y="202.49" width="144" height="144" rx="72" fill="#5370D7"/>
<rect x="28.8" y="375.29" width="144" height="144" rx="72" fill="#5370D7"/>
<rect x="201.6" y="375.29" width="144" height="144" rx="72" fill="#5370D7"/>
<rect x="374.4" y="375.29" width="144" height="144" rx="72" fill="#5370D7"/>
<rect x="547.2" y="375.29" width="144" height="144" rx="72" fill="#5370D7"/>
<rect x="28.8" y="548.09" width="144" height="144" rx="72" fill="#5370D7"/>
<rect x="201.6" y="548.09" width="144" height="144" rx="72" fill="#5370D7"/>
<rect x="374.4" y="548.09" width="144" height="144" rx="72" fill="#5370D7"/>
<rect x="547.2" y="548.09" width="144" height="144" rx="72" fill="#5370D7"/>
</svg>
