<svg width="864" height="120" viewBox="0 0 864 120" fill="none" xmlns="http://www.w3.org/2000/svg">
<g clip-path="url(#clip0_1_86)">
<mask id="mask0_1_86" style="mask-type:luminance" maskUnits="userSpaceOnUse" x="0" y="0" width="864" height="120">
<path d="M863.889 0.309998H0.0328979V119.392H863.889V0.309998Z" fill="white"/>
</mask>
<g mask="url(#mask0_1_86)">
<path d="M124.031 89.201H164.62V34.1605C164.62 23.7461 161.918 15.5937 156.578 9.92314C151.269 4.28401 143.87 1.42517 134.587 1.42517C128.366 1.42517 122.712 2.63468 117.795 5.02228C112.816 7.42558 107.773 11.2897 102.778 16.5205L101.365 17.9971L100.296 16.2535C94.2646 6.27891 85.1697 1.42517 72.5248 1.42517C62.0005 1.42517 53.047 5.30502 45.9 12.9862L43.1825 15.8921V7.22138C21.914 9.75035 0.0328979 7.28421 0.0328979 7.28421V89.201H43.1825V29.0711L43.8422 28.5999C46.9838 26.3694 50.1411 25.2384 53.2041 25.2384C56.2672 25.2384 58.8118 26.3222 60.6497 28.4899C62.409 30.5634 63.3043 33.4065 63.3043 36.9094V89.1852H103.894V28.9298L104.569 28.4585C107.616 26.338 110.774 25.2541 113.931 25.2541C117.088 25.2541 119.397 26.3222 121.282 28.4428C123.104 30.5163 124.031 33.3594 124.031 36.9408V89.2167V89.201Z" fill="white"/>
<path d="M209.67 74.8911C206.497 74.8911 203.811 73.9172 201.691 72.0165C199.539 70.0687 198.439 67.6183 198.439 64.7123C198.439 61.8064 199.476 59.5759 201.534 57.8323C205.037 54.8635 210.534 54.4708 217.352 56.7956L218.42 57.1568V71.5767L217.87 72.0479C215.639 73.9329 212.875 74.8911 209.67 74.8911ZM201.063 43.2868C192.298 43.2868 185.135 45.6115 179.763 50.214C174.391 54.8164 171.783 60.6126 171.783 67.9325C171.783 74.3413 173.888 79.4935 178.192 83.6875C182.527 87.8972 187.805 89.9392 194.324 89.9392C202.131 89.9392 209.403 87.5202 215.938 82.745L218.42 80.9229V89.1852H261.554V40.8835C261.554 27.5475 257.957 17.5258 250.841 11.1326C243.694 4.69241 232.306 1.42517 217.006 1.42517C201.707 1.42517 186.69 4.81807 174.092 11.4939V35.0873C182.386 30.9875 190.617 28.914 198.581 28.914C204.628 28.914 209.466 30.2021 212.938 32.7311C216.566 35.3857 218.404 39.1085 218.404 43.8051V45.8629L216.425 45.3288C211.43 43.9779 206.262 43.2868 201.031 43.2868" fill="white"/>
<path d="M334.156 89.201H374.76V34.7574C374.76 23.699 372.074 15.2952 366.765 9.75035C361.487 4.23688 353.712 1.42517 343.674 1.42517C333.637 1.42517 324.322 5.32073 316.877 13.0019L314.191 15.7822V7.22138C314.191 7.22138 291.493 9.89172 271.057 7.28421V89.201H314.191V29.0711L314.866 28.5999C317.914 26.4793 321.008 25.3955 324.071 25.3955C328.673 25.3955 334.171 27.6103 334.171 38.1974V89.201H334.156Z" fill="white"/>
<path d="M431.419 53.9531C427.963 53.9531 425.12 52.8849 422.984 50.7644C420.832 48.6438 419.748 45.785 419.748 42.2821C419.748 36.4074 422.701 29.4173 436.807 29.4173H439.43V51.1885L438.849 51.6597C436.979 53.1834 434.482 53.9531 431.419 53.9531ZM384.091 107.061C397.788 115.245 415.224 119.392 435.911 119.392C451.902 119.392 463.824 115.921 471.348 109.056C478.841 102.239 482.627 91.2279 482.627 76.3368V7.22208H432.236C421.397 7.22208 413.622 7.63048 409.145 8.43158C404.762 9.21698 400.726 10.6935 397.128 12.8298C393.61 14.9347 390.484 18.3433 387.798 23.0085C385.128 27.6581 383.777 33.3286 383.777 39.8631C383.777 49.7434 386.95 57.723 393.201 63.582C399.485 69.4568 408.108 72.4413 418.821 72.4413C426.031 72.4413 432.141 70.8862 436.995 67.8232L438.974 66.5822L439.383 68.8756C439.54 69.8023 439.634 70.6977 439.634 71.5459C439.634 80.2324 432.801 84.6463 419.355 84.6463C405.909 84.6463 394.694 79.9025 384.075 70.572V107.061H384.091Z" fill="white"/>
<path d="M492.098 89.202H535.232V57.1422C535.232 46.131 537.746 38.4184 542.678 34.2401L543.809 33.2819L544.83 34.3658C549.762 39.5808 555.511 42.1098 562.407 42.1098C568.407 42.1098 573.12 40.272 576.827 36.4706C580.534 32.6693 582.325 27.7999 582.325 21.5796C582.325 15.3592 580.487 10.9296 576.717 7.11259C572.947 3.29557 568.266 1.44205 562.407 1.44205C551.82 1.44205 543.903 7.85086 538.232 21.0141L535.232 27.9884V7.22255C510.885 9.75152 492.098 7.22255 492.098 7.22255V89.202Z" fill="white"/>
<path d="M628.537 56.466C625.113 56.466 622.286 55.3508 620.118 53.1517C617.966 50.9683 616.866 48.1094 616.866 44.6537C616.866 41.198 617.966 38.3234 620.118 36.1086C622.286 33.8781 625.113 32.7471 628.537 32.7471C631.962 32.7471 634.868 33.8624 637.051 36.0615C639.25 38.2606 640.365 41.1508 640.365 44.6537C640.365 48.1566 639.25 50.984 637.051 53.1674C634.868 55.3665 631.993 56.466 628.537 56.466ZM628.537 0.310355C614.494 0.310355 602.918 4.55148 594.121 12.9081C585.356 21.2489 580.911 32.2287 580.911 45.5333C580.911 58.8379 585.419 69.7863 594.294 78.0487C603.216 86.3424 614.73 90.5365 628.537 90.5365C642.344 90.5365 654.33 86.3267 663.142 78.0016C671.938 69.7235 676.399 58.7908 676.399 45.5176C676.399 32.2445 671.938 21.2332 663.142 12.8924C654.33 4.53577 642.69 0.294647 628.537 0.294647" fill="white"/>
<path d="M707.438 89.2016H739.608L775.343 7.22208H732.492L723.649 27.5481L714.648 7.22208H671.797L707.438 89.2016Z" fill="white"/>
<path d="M838.866 37.3021H813.875V35.7313C813.875 30.6734 815.053 26.7464 817.409 24.0446C819.812 21.28 822.702 19.882 826.001 19.882C829.724 19.882 832.803 21.3429 835.127 24.2488C837.342 27.0134 838.583 30.8619 838.803 35.6842L838.882 37.3178L838.866 37.3021ZM816.859 0.309998C803.366 0.309998 792.261 4.47259 783.841 12.6721C775.437 20.8559 771.181 31.6158 771.181 44.6377C771.181 58.335 775.814 69.519 784.972 77.8913C794.161 86.295 806.523 90.5361 821.729 90.5361C839.95 90.5361 854.118 84.1744 863.889 71.6553C863.889 71.6553 859.93 69.0477 855.516 65.0108C851.039 66.8486 845.997 67.7597 840.437 67.7597C834.876 67.7597 830.117 66.3617 825.875 63.6128C821.603 60.8482 818.524 56.9527 816.718 52.0675L815.932 49.9627H863.841C863.731 42.0145 862.695 35.1658 860.794 29.5738C858.768 23.6676 855.595 18.4212 851.338 13.9759C847.081 9.51482 841.945 6.0905 836.101 3.79715C830.227 1.48809 823.739 0.309998 816.828 0.309998" fill="white"/>
</g>
</g>
<defs>
<clipPath id="clip0_1_86">
<rect width="863.934" height="119.38" fill="white" transform="translate(0.0328979 0.309998)"/>
</clipPath>
</defs>
</svg>
