<svg width="200" height="28" viewBox="0 0 200 28" fill="none" xmlns="http://www.w3.org/2000/svg">
<mask id="mask0_1_4" style="mask-type:alpha" maskUnits="userSpaceOnUse" x="0" y="0" width="200" height="38">
<g clip-path="url(#clip0_1_4)">
<path d="M28.6969 20.5869H38.1007V7.83272C38.1007 5.42976 37.4769 3.53512 36.2292 2.21811C35.0046 0.924213 33.2948 0.254158 31.146 0.254158C29.7135 0.254158 28.3965 0.531422 27.2643 1.08595C26.1091 1.64048 24.9538 2.54159 23.7985 3.74307L23.475 4.08965L23.2209 3.67375C21.8115 1.38632 19.7089 0.254158 16.7745 0.254158C14.3484 0.254158 12.2689 1.15527 10.6054 2.93438L9.98152 3.60444V1.59427C5.06007 2.19501 0 1.61737 0 1.61737V20.5869H9.98152V6.65434L10.1433 6.53882C10.8826 6.0305 11.5989 5.75323 12.3152 5.75323C13.0314 5.75323 13.6091 6.00739 14.0481 6.51571C14.464 7.00092 14.6719 7.64787 14.6719 8.45656V20.5638H24.0758V6.63124L24.2375 6.51571C24.9538 6.0305 25.6701 5.77634 26.4094 5.77634C27.1026 5.77634 27.6802 6.0305 28.1192 6.51571C28.5351 7.00092 28.7662 7.64787 28.7662 8.47967V20.5869H28.6969Z" fill="#1F1E1D"/>
<path d="M48.5444 17.2597C47.805 17.2597 47.1812 17.0287 46.696 16.5897C46.1876 16.1275 45.9335 15.573 45.9335 14.903C45.9335 14.256 46.1645 13.7246 46.6497 13.3087C47.4584 12.6155 48.7292 12.5231 50.3235 13.0776L50.5776 13.1701V16.5203L50.439 16.6359C49.9076 17.0518 49.2838 17.2597 48.5444 17.2597ZM46.5342 9.95841C44.5009 9.95841 42.8374 10.4898 41.6128 11.5527C40.3651 12.6155 39.7643 13.9556 39.7643 15.6423C39.7643 17.1211 40.2496 18.3226 41.2431 19.293C42.2366 20.2634 43.4612 20.7486 44.9862 20.7486C46.7884 20.7486 48.4751 20.1941 50 19.085L50.5776 18.6691V20.5869H60.5592V9.40389C60.5592 6.30777 59.7274 3.99723 58.0869 2.51849C56.4233 1.01664 53.7893 0.277267 50.2542 0.277267C46.5804 0.277267 43.2301 1.06285 40.3189 2.61091V8.06377C42.2366 7.11645 44.1544 6.63124 45.9797 6.63124C47.3891 6.63124 48.4982 6.93161 49.3069 7.50925C50.1386 8.13309 50.5776 8.98799 50.5776 10.0739V10.5592L50.1155 10.4436C48.9603 10.097 47.7588 9.95841 46.5342 9.95841Z" fill="#1F1E1D"/>
<path d="M77.3567 20.5869H86.7606V7.97135C86.7606 5.40665 86.1368 3.4658 84.9122 2.1719C83.6876 0.901108 81.8854 0.254158 79.5749 0.254158C77.1719 0.254158 75.0924 1.15527 73.3595 2.93438L72.7357 3.58133V1.59427C72.7357 1.59427 67.4907 2.21811 62.7542 1.61737V20.5869H72.7357V6.65434L72.8974 6.53882C73.6137 6.0536 74.3299 5.79944 75.0231 5.79944C76.0859 5.79944 77.3567 6.30776 77.3567 8.75693V20.5869Z" fill="#1F1E1D"/>
<path d="M99.8614 12.4076C99.0527 12.4076 98.4057 12.1534 97.8974 11.6682C97.4122 11.183 97.158 10.5129 97.158 9.70425C97.158 8.34103 97.8512 6.72366 101.109 6.72366H101.71V11.7837L101.571 11.8993C101.155 12.2458 100.578 12.4076 99.8614 12.4076ZM88.9094 24.7227C92.0749 26.6174 96.1183 27.5878 100.901 27.5878C104.598 27.5878 107.371 26.7791 109.104 25.1848C110.836 23.6137 111.714 21.049 111.714 17.6063V1.59427H100.046C97.5277 1.59427 95.7486 1.68669 94.7089 1.87153C93.6922 2.05638 92.768 2.40296 91.9362 2.88817C91.1275 3.37338 90.3882 4.15896 89.7874 5.24492C89.1636 6.33087 88.8632 7.62477 88.8632 9.14972C88.8632 11.4372 89.6026 13.2856 91.0351 14.6488C92.4908 16.012 94.4778 16.7052 96.9732 16.7052C98.6368 16.7052 100.046 16.3355 101.178 15.6423L101.64 15.342L101.733 15.8734C101.779 16.0813 101.779 16.2893 101.779 16.4972C101.779 18.5074 100.208 19.524 97.0887 19.524C95.2634 19.524 93.5536 19.1081 91.9131 18.2994C91.0813 17.8835 90.2726 17.3752 89.5102 16.7514C89.3253 16.5896 89.1174 16.4279 88.9325 16.2662V24.7227H88.9094Z" fill="#1F1E1D"/>
<path d="M113.933 20.5869H123.914V13.1469C123.914 10.6054 124.492 8.80314 125.647 7.83272L125.901 7.60166L126.132 7.85582C127.264 9.0573 128.604 9.65804 130.199 9.65804C131.585 9.65804 132.671 9.24214 133.526 8.36414C134.381 7.48614 134.797 6.35397 134.797 4.92144C134.797 3.55822 134.381 2.44917 133.503 1.57116C132.625 0.69316 131.539 0.254158 130.199 0.254158C127.75 0.254158 125.924 1.7329 124.607 4.78281L123.914 6.40018V1.59427C118.276 2.1719 113.933 1.59427 113.933 1.59427V20.5869Z" fill="#1F1E1D"/>
<path d="M145.518 13.0083C144.732 13.0083 144.062 12.7542 143.577 12.2458C143.068 11.7375 142.814 11.0675 142.814 10.2819C142.814 9.4732 143.068 8.82625 143.577 8.29483C144.085 7.78651 144.732 7.50924 145.518 7.50924C146.326 7.50924 146.973 7.7634 147.482 8.27172C147.99 8.78004 148.244 9.45009 148.244 10.2588C148.244 11.0675 147.99 11.7144 147.482 12.2227C146.973 12.7542 146.303 13.0083 145.518 13.0083ZM145.518 0C142.26 0 139.579 0.993531 137.546 2.91128C135.513 4.85213 134.473 7.39372 134.473 10.4667C134.473 13.5397 135.513 16.0813 137.569 17.9991C139.626 19.9168 142.306 20.8872 145.494 20.8872C148.775 20.8872 151.456 19.9168 153.512 17.976C155.545 16.0582 156.585 13.5397 156.585 10.4667C156.585 7.39372 155.545 4.85213 153.512 2.91128C151.479 0.993531 148.775 0 145.518 0Z" fill="#1F1E1D"/>
<path d="M163.771 20.5869H171.211L179.506 1.59427H169.57L167.537 6.30776L165.434 1.59427H155.522L163.771 20.5869Z" fill="#1F1E1D"/>
<path d="M194.201 8.57209H188.424V8.2024C188.424 7.02403 188.702 6.12292 189.233 5.49908C189.787 4.85213 190.458 4.52865 191.22 4.52865C192.075 4.52865 192.791 4.87523 193.323 5.54529C193.831 6.19224 194.131 7.07024 194.177 8.2024L194.201 8.57209ZM189.117 0C185.998 0 183.433 0.970425 181.47 2.86506C179.529 4.7597 178.535 7.25508 178.535 10.2588C178.535 13.4242 179.598 16.012 181.724 17.9529C183.849 19.8937 186.714 20.8872 190.226 20.8872C194.455 20.8872 197.736 19.4085 199.977 16.5203C199.977 16.5203 199.053 15.9196 198.036 14.9723C196.996 15.3882 195.841 15.6192 194.547 15.6192C193.299 15.6192 192.167 15.2957 191.174 14.6488C190.18 14.0019 189.464 13.1007 189.048 11.9686L188.863 11.4834H199.954C199.931 9.63494 199.7 8.06377 199.238 6.76987C198.775 5.40665 198.036 4.18207 197.043 3.16543C196.049 2.12569 194.871 1.34011 193.507 0.808688C192.214 0.277264 190.712 0 189.117 0Z" fill="#1F1E1D"/>
</g>
</mask>
<g mask="url(#mask0_1_4)">
<rect width="200" height="28" fill="black"/>
</g>
<defs>
<clipPath id="clip0_1_4">
<rect width="200" height="27.5647" fill="white"/>
</clipPath>
</defs>
</svg>
