<svg width="720" height="721" viewBox="0 0 720 721" fill="none" xmlns="http://www.w3.org/2000/svg">
<g clip-path="url(#clip0_1_451)">
<rect width="720" height="720" transform="translate(0 0.889893)" fill="#09C15E"/>
<path d="M728.26 -166.527C625.393 -166.527 625.393 -259.86 522.54 -259.86C419.687 -259.86 419.673 -166.527 316.82 -166.527C213.967 -166.527 213.967 -259.86 111.1 -259.86C8.2334 -259.86 8.26007 -166.527 -94.6066 -166.527C-197.473 -166.527 -197.46 -259.86 -300.327 -259.86C-403.193 -259.86 -403.18 -166.527 -506.033 -166.527C-608.887 -166.527 -608.887 -259.86 -711.74 -259.86V1900.14H728.26V-166.527Z" fill="#D5FCDF"/>
<path d="M908.26 427.473C805.393 427.473 805.393 334.14 702.54 334.14C599.687 334.14 599.673 427.473 496.82 427.473C393.967 427.473 393.967 334.14 291.1 334.14C188.233 334.14 188.26 427.473 85.3934 427.473C-17.4733 427.473 -17.46 334.14 -120.327 334.14C-223.193 334.14 -223.18 427.473 -326.033 427.473C-428.887 427.473 -428.887 334.14 -531.74 334.14V2494.14H908.26V427.473Z" fill="#5370D7"/>
</g>
<defs>
<clipPath id="clip0_1_451">
<rect width="720" height="720" fill="white" transform="translate(0 0.889893)"/>
</clipPath>
</defs>
</svg>
